v -5.7735026919e-1 -5.7735026919e-1 -5.7735026919e-1
v 5.7735026919e-1 -5.7735026919e-1 -5.7735026919e-1
v 5.7735026919e-1 5.7735026919e-1 -5.7735026919e-1
v -5.7735026919e-1 5.7735026919e-1 -5.7735026919e-1
v -5.7735026919e-1 -5.7735026919e-1 5.7735026919e-1
v 5.7735026919e-1 -5.7735026919e-1 5.7735026919e-1
v 5.7735026919e-1 5.7735026919e-1 5.7735026919e-1
v -5.7735026919e-1 5.7735026919e-1 5.7735026919e-1
vn 0.0000000000e0 0.0000000000e0 -1.0000000000e0
vn 0.0000000000e0 -1.0000000000e0 0.0000000000e0
vn 1.0000000000e0 0.0000000000e0 0.0000000000e0
vn 0.0000000000e0 1.0000000000e0 0.0000000000e0
vn -1.0000000000e0 0.0000000000e0 0.0000000000e0
vn 0.0000000000e0 0.0000000000e0 1.0000000000e0
f 4//1 3//1 2//1 1//1
f 1//2 2//2 6//2 5//2
f 2//3 3//3 7//3 6//3
f 3//4 4//4 8//4 7//4
f 4//5 1//5 5//5 8//5
f 5//6 6//6 7//6 8//6
